<svg width="56" height="56" viewBox="0 0 56 56" fill="none" xmlns="http://www.w3.org/2000/svg">
<path d="M50.302 18.2587C50.3664 17.7715 50.4 17.2843 50.4 16.7999C50.4 10.1387 44.3996 4.79354 37.7412 5.69794C35.8008 2.24554 32.1048 -6.10352e-05 28 -6.10352e-05C23.8952 -6.10352e-05 20.1992 2.24554 18.2588 5.69794C11.5864 4.79354 5.6 10.1387 5.6 16.7999C5.6 17.2843 5.6336 17.7715 5.698 18.2587C2.2456 20.2019 0 23.8979 0 27.9999C0 32.1019 2.2456 35.7979 5.698 37.7411C5.6334 38.2247 5.60067 38.7121 5.6 39.1999C5.6 45.8611 11.5864 51.1923 18.2588 50.3019C20.1992 53.7543 23.8952 55.9999 28 55.9999C32.1048 55.9999 35.8008 53.7543 37.7412 50.3019C44.3996 51.1923 50.4 45.8611 50.4 39.1999C50.4 38.7155 50.3664 38.2283 50.302 37.7411C53.7544 35.7979 56 32.1019 56 27.9999C56 23.8979 53.7544 20.2019 50.302 18.2587ZM25.074 40.3647L14.8064 29.9655L18.7936 26.0343L25.1132 32.4351L37.2288 20.4119L41.1712 24.3879L25.074 40.3647Z" fill="#3B44F6"/>
</svg>
