<svg width="56" height="56" viewBox="0 0 56 56" fill="none" xmlns="http://www.w3.org/2000/svg">
<path d="M40.8592 35.0221C45.8613 41.1517 48.1648 46.1751 47.0018 48.4215C46.1097 50.126 40.5995 53.4561 36.5458 54.7317C33.2035 55.7815 28.8224 56.2331 25.2091 55.8831C20.8957 55.4655 16.5259 53.919 12.7771 51.4807C9.62678 49.4262 8.91541 48.5795 8.91541 46.8976C8.91541 43.5223 12.6303 37.6072 18.9875 30.8567C22.6008 27.0299 27.6255 22.5371 28.1788 22.6613C29.2402 22.8984 37.6975 31.1389 40.8592 35.0221ZM20.3876 15.3351C17.034 12.2985 13.8272 9.25066 10.6317 8.17826C8.91541 7.60255 8.7912 7.63641 7.39105 9.09262C4.09392 12.5243 1.35008 18.0895 0.582256 22.9097C-0.0274873 26.7703 -0.106528 27.854 0.108011 29.7392C0.740337 35.4398 2.06145 39.3795 4.68108 43.3869C5.75378 45.035 6.04736 45.3398 5.7312 44.5044C5.25695 43.2627 5.69732 40.2713 6.80389 37.2798C8.41858 32.8773 12.89 24.5352 20.3876 15.3351ZM55.5721 22.5033C53.6638 13.4725 47.9503 7.79445 47.1486 7.79445C46.3243 7.79445 44.416 8.5282 43.0836 9.36354C40.4527 11.0004 38.4541 12.9081 35.8231 15.3238C40.6108 21.3406 47.3631 31.0599 49.7005 38.1603C50.4683 40.497 50.7957 42.7999 50.536 44.0642C50.3441 45.0237 50.3441 45.0237 50.6941 44.5834C51.3829 43.7142 52.9411 41.0502 53.5622 39.673C54.3977 37.8442 55.2559 35.135 55.6624 33.0467C56.1479 30.5068 56.1028 25.0545 55.5721 22.5033ZM15.0467 3.95639C20.4328 3.67418 27.4335 7.85089 27.9529 7.95249C28.032 7.96378 29.1273 7.47838 30.3919 6.85751C37.6072 3.34681 41.006 3.9451 42.519 4.01283C35.3037 -0.42352 25.2769 -1.63138 16.1081 2.69208C13.4659 3.9451 13.3982 4.03541 15.0467 3.95639Z" fill="#3B44F6"/>
</svg>
